# xmcd CD database file
#
# Track frame offsets:
#	150
#	14436
#	30867
#
# Disc length: 529 seconds
#
# Revision: 2
# Processed by: cddbd v1.5.1PL2 Copyright (c) Steve Scherf et al.
# Submitted via: CDex 1.51
#
DISCID=14020f03
DTITLE=Enya - Amarantine
DYEAR=1996
DGENRE=Easy Listening
TTITLE0=Amarantine
TTITLE1=The comb of the winds
TTITLE2=The spaghetti western theme
EXTD=YEAR: 1996
EXTT0=
EXTT1=
EXTT2=
PLAYORDER=
